# xmcd
#
# Track frame offsets:
#	150
#	12852
#	25885
#	43167
#	56796
#	69629
#	83131
#	97001
#	109952
#	120098
#	135399
#	145205
#	158700
#	172386
#	185392
#
# Disc length: 2659 seconds
# Revision: 1
# Processed by: cddbd v1.5.2PL0 Copyright (c) Steve Scherf et al.
# Submitted via: dBpowerAMP V12.0
#
DISCID=ce0a610f
DTITLE=Various Artist - Woke Up This Morning: 15 Blues Classics
DYEAR=1900
DGENRE=Blues
TTITLE0=Slim Harpo - I Got Love If You Want It
TTITLE1=Ray Charles - I Got A Woman
TTITLE2=Billy Boy Arnold - I Wish You Would
TTITLE3=BB King - Three O'Clock Blues
TTITLE4=Muddy Waters - I'm Your Hoochie Coochie Man
TTITLE5=Bo Diddley - I'm A Man
TTITLE6=Howlin' Wolf - Smokestack Lightnin'
TTITLE7=Robert Johnson - Ramblin' On My Mind
TTITLE8=Jimmy Reed - Ain't That Lovin' You Baby
TTITLE9=Big Joe Williams - Baby Please Don't Go
TTITLE10=John Lee Hooker - Dimples
TTITLE11=Sonny Boy Williamson - Good Morning Little Schoolgirl
TTITLE12=Big Bill Broonzy - Key To The Highway
TTITLE13=Little Walter - It Ain't Right
TTITLE14=Kokomo Arnold - Milk Cow Blues
EXTD=
EXTT0=
EXTT1=
EXTT2=
EXTT3=
EXTT4=
EXTT5=
EXTT6=
EXTT7=
EXTT8=
EXTT9=
EXTT10=
EXTT11=
EXTT12=
EXTT13=
EXTT14=
PLAYORDER=
